<?xml version="1.0" standalone="no"?>
<!DOCTYPE svg PUBLIC "-//W3C//DTD SVG 20010904//EN"
 "http://www.w3.org/TR/2001/REC-SVG-20010904/DTD/svg10.dtd">
<svg version="1.0" xmlns="http://www.w3.org/2000/svg"
 width="200.000000pt" height="200.000000pt" viewBox="0 0 200.000000 200.000000"
 preserveAspectRatio="xMidYMid meet">
<metadata>
Created by potrace 1.11, written by Peter Selinger 2001-2013
</metadata>
<g transform="translate(0.000000,200.000000) scale(0.100000,-0.100000)"
fill="#000000" stroke="none">
<path d="M748 1976 c-180 -76 -328 -243 -399 -450 -44 -128 -61 -263 -57 -456
4 -157 6 -169 37 -255 49 -135 69 -209 81 -299 17 -126 61 -208 159 -296 43
-39 85 -85 92 -103 l14 -32 6 30 c12 53 9 169 -6 208 -13 38 -12 40 25 96 52
78 66 82 74 24 3 -25 7 -62 8 -82 1 -30 2 -28 7 14 5 45 9 50 31 50 14 1 45
-5 69 -12 53 -16 162 -17 214 -2 21 5 53 12 72 13 34 4 35 3 36 -33 1 -27 3
-22 9 22 4 32 10 60 13 64 8 8 55 -23 83 -56 17 -19 23 -38 24 -73 0 -26 5
-59 11 -75 6 -15 19 -59 29 -98 18 -69 18 -69 29 -40 21 59 37 80 57 77 15 -2
16 -1 5 7 -12 7 -10 15 8 44 11 19 28 67 37 108 9 42 48 144 89 234 100 219
110 257 109 435 -1 450 -157 788 -421 917 l-78 38 -205 3 c-197 2 -207 1 -262
-22z m466 -613 c17 -47 16 -48 -35 -57 -37 -7 -89 -40 -89 -56 0 -5 21 2 48
15 70 36 100 41 109 19 3 -11 15 -32 26 -48 l20 -29 -37 7 c-29 6 -36 4 -30
-5 5 -9 1 -11 -14 -7 -14 4 -20 2 -15 -5 4 -7 0 -8 -11 -4 -10 4 -15 3 -11 -3
3 -6 0 -13 -9 -16 -18 -7 -50 -53 -42 -61 3 -3 14 5 24 17 l19 23 11 -30 c6
-17 8 -34 5 -36 -9 -9 86 -20 118 -13 17 3 44 15 60 27 17 12 32 20 33 18 2
-2 22 -48 45 -101 l43 -97 -17 -74 c-22 -99 -58 -159 -166 -272 -120 -125
-180 -157 -298 -157 -65 0 -91 5 -137 26 -62 29 -180 136 -249 228 l-42 56
-13 161 c-14 167 -13 174 25 225 13 17 15 17 48 -8 18 -14 48 -29 65 -32 32
-7 128 4 119 13 -3 2 -1 19 5 36 l11 30 18 -21 c9 -12 20 -22 23 -22 13 0 5
18 -18 43 l-23 25 51 28 c68 37 165 139 211 222 47 86 39 37 -11 -65 -24 -50
-47 -81 -77 -104 -60 -46 -66 -53 -31 -36 81 41 152 158 177 290 l11 58 17
-83 c10 -46 24 -102 33 -125z m-280 16 c-38 -70 -66 -100 -80 -87 -3 4 13 29
36 55 23 26 49 63 58 80 9 18 18 31 20 28 2 -2 -13 -36 -34 -76z m373 9 c-3
-8 -6 -5 -6 6 -1 11 2 17 5 13 3 -3 4 -12 1 -19z m15 -43 c3 -13 1 -22 -3 -19
-9 5 -13 44 -5 44 2 0 6 -11 8 -25z m26 -84 c14 -46 15 -51 3 -51 -5 0 -12 12
-15 28 -4 15 -9 35 -12 45 -3 9 -1 17 4 17 5 0 14 -17 20 -39z m-494 10 c6
-10 -58 -71 -75 -71 -6 0 -7 5 -4 10 3 6 0 10 -7 10 -15 0 52 59 69 60 6 0 14
-4 17 -9z m466 -111 c0 -5 -4 -10 -9 -10 -6 0 -13 5 -16 10 -3 6 1 10 9 10 9
0 16 -4 16 -10z m55 0 c3 -5 1 -10 -4 -10 -6 0 -11 5 -11 10 0 6 2 10 4 10 3
0 8 -4 11 -10z m-713 -29 c4 -26 2 -29 -14 -20 -18 10 -24 30 -11 42 13 14 21
6 25 -22z m698 -11 c0 -4 -6 -10 -14 -13 -10 -4 -12 0 -9 14 5 18 23 18 23 -1z
m160 -272 c0 -5 -9 -8 -20 -8 -22 0 -23 3 -13 39 l6 23 13 -23 c7 -13 13 -27
14 -31z m-1010 2 c0 -5 -4 -10 -10 -10 -5 0 -10 5 -10 10 0 6 5 10 10 10 6 0
10 -4 10 -10z"/>
<path d="M901 870 c0 -8 4 -22 9 -30 12 -18 12 -2 0 25 -6 13 -9 15 -9 5z"/>
<path d="M1082 842 c-11 -25 -11 -25 4 -10 9 9 15 21 13 27 -2 6 -10 -2 -17
-17z"/>
<path d="M940 830 c0 -5 10 -10 23 -10 18 0 19 2 7 10 -19 13 -30 13 -30 0z"/>
<path d="M1030 830 c-12 -8 -11 -10 8 -10 12 0 22 5 22 10 0 13 -11 13 -30 0z"/>
<path d="M856 701 c5 -5 27 -12 49 -15 l40 -6 -45 15 c-53 17 -57 18 -44 6z"/>
<path d="M1095 694 l-40 -14 40 6 c22 3 44 10 50 15 12 12 0 10 -50 -7z"/>
<path d="M973 673 c15 -2 39 -2 55 0 15 2 2 4 -28 4 -30 0 -43 -2 -27 -4z"/>
<path d="M508 233 c7 -3 16 -2 19 1 4 3 -2 6 -13 5 -11 0 -14 -3 -6 -6z"/>
<path d="M465 221 c-7 -12 57 -121 86 -146 l23 -20 -15 25 c-65 102 -80 131
-74 140 3 5 2 10 -4 10 -5 0 -12 -4 -16 -9z"/>
<path d="M330 189 c-127 -37 -209 -89 -255 -161 -27 -43 -3 -33 28 12 46 65
120 108 257 149 36 10 58 19 50 19 -8 0 -44 -8 -80 -19z"/>
<path d="M1508 203 c9 -3 4 -17 -18 -46 -16 -22 -30 -48 -30 -56 0 -9 17 8 37
37 20 28 42 52 49 52 28 0 223 -64 264 -86 25 -14 58 -43 74 -64 34 -45 58
-55 27 -11 -55 77 -122 112 -298 156 -94 23 -136 30 -105 18z"/>
<path d="M1180 33 c8 -3 27 -12 43 -20 15 -7 27 -11 27 -9 0 8 -58 36 -72 35
-9 0 -8 -2 2 -6z"/>
<path d="M870 10 c-8 -5 -10 -10 -5 -10 6 0 17 5 25 10 8 5 11 10 5 10 -5 0
-17 -5 -25 -10z"/>
<path d="M951 16 c10 -9 79 -14 79 -5 0 5 -19 9 -42 9 -23 0 -39 -2 -37 -4z"/>
<path d="M1063 13 c9 -2 25 -2 35 0 9 3 1 5 -18 5 -19 0 -27 -2 -17 -5z"/>
</g>
</svg>
